<svg width="210" height="210" viewBox="0 0 210 210" fill="none" xmlns="http://www.w3.org/2000/svg">
<path d="M168.444 147.852L131.441 206H7.28669L78.5594 94H202.713L168.444 147.852Z" fill="white" stroke="#AE0001" stroke-width="8"/>
<path d="M145.944 147.852L121.668 186H42.0594L87.8776 114H167.486L145.944 147.852Z" fill="#AE0001" stroke="#AE0001" stroke-width="8"/>
<path d="M168.444 117.852L131.441 176H7.28669L78.5594 64H202.713L168.444 117.852Z" fill="white" stroke="#2A623D" stroke-width="8"/>
<path d="M145.944 117.852L121.668 156H42.0594L87.8776 84H167.486L145.944 117.852Z" fill="#2A623D" stroke="#2A623D" stroke-width="8"/>
<path d="M168.444 87.8525L131.441 146H7.28669L78.5594 34H202.713L168.444 87.8525Z" fill="white" stroke="#222F5B" stroke-width="8"/>
<path d="M145.944 87.8525L121.668 126H42.0594L87.8776 54H167.486L145.944 87.8525Z" fill="#222F5B" stroke="#222F5B" stroke-width="8"/>
<path d="M168.444 57.8525L131.441 116H7.28669L78.5594 4H202.713L168.444 57.8525Z" fill="white" stroke="#F0C75E" stroke-width="8"/>
<path d="M145.944 57.8525L121.668 96H42.0594L87.8776 24H167.486L145.944 57.8525Z" fill="#F0C75E" stroke="#F0C75E" stroke-width="8"/>
</svg>
